<?xml version="1.0" standalone="no"?>
<svg xmlns="http://www.w3.org/2000/svg" viewBox="0 128 1440 192">
<path fill="#8A3FFC" fill-opacity="0.3" d="M0,224L21.8,218.7C43.6,213,87,203,131,197.3C174.5,192,218,192,262,202.7C305.5,213,349,235,393,229.3C436.4,224,480,192,524,181.3C567.3,171,611,181,655,186.7C698.2,192,742,192,785,192C829.1,192,873,192,916,202.7C960,213,1004,235,1047,218.7C1090.9,203,1135,149,1178,154.7C1221.8,160,1265,224,1309,250.7C1352.7,277,1396,267,1418,261.3L1440,256L1440,320L1418.2,320C1396.4,320,1353,320,1309,320C1265.5,320,1222,320,1178,320C1134.5,320,1091,320,1047,320C1003.6,320,960,320,916,320C872.7,320,829,320,785,320C741.8,320,698,320,655,320C610.9,320,567,320,524,320C480,320,436,320,393,320C349.1,320,305,320,262,320C218.2,320,175,320,131,320C87.3,320,44,320,22,320L0,320Z"></path>
<path fill="#8A3FFC" fill-opacity="1" d="M0,320L21.8,304C43.6,288,87,256,131,250.7C174.5,245,218,267,262,266.7C305.5,267,349,245,393,240C436.4,235,480,245,524,224C567.3,203,611,149,655,144C698.2,139,742,181,785,197.3C829.1,213,873,203,916,208C960,213,1004,235,1047,234.7C1090.9,235,1135,213,1178,197.3C1221.8,181,1265,171,1309,160C1352.7,149,1396,139,1418,133.3L1440,128L1440,320L1418.2,320C1396.4,320,1353,320,1309,320C1265.5,320,1222,320,1178,320C1134.5,320,1091,320,1047,320C1003.6,320,960,320,916,320C872.7,320,829,320,785,320C741.8,320,698,320,655,320C610.9,320,567,320,524,320C480,320,436,320,393,320C349.1,320,305,320,262,320C218.2,320,175,320,131,320C87.3,320,44,320,22,320L0,320Z"></path>
</svg>