<?xml version="1.0" standalone="no"?>
<svg viewBox="21.06146240234375 38.6915397644043 154.90182495117188 150.4740753173828" xmlns="http://www.w3.org/2000/svg">
  <path fill="#8A3FFC" d="M32.3,-52.3C42.2,-50.3,50.7,-42.2,59.4,-32.5C68.2,-22.8,77.3,-11.4,75.8,-0.9C74.2,9.6,61.9,19.1,53.4,29.2C44.8,39.3,39.8,49.9,31.5,61.3C23.3,72.8,11.6,85.1,-1.8,88.3C-15.3,91.5,-30.6,85.5,-41.7,75.7C-52.7,65.8,-59.5,52.1,-66.3,38.8C-73.2,25.5,-80,12.8,-78.8,0.7C-77.6,-11.4,-68.3,-22.7,-60.7,-34.6C-53.1,-46.5,-47.1,-58.9,-37.3,-61C-27.4,-63,-13.7,-54.7,-1.2,-52.6C11.2,-50.4,22.5,-54.4,32.3,-52.3Z" transform="translate(100 100)" />
</svg>
