<?xml version="1.0" standalone="no"?>
<svg viewBox="0 0 200 200" xmlns="http://www.w3.org/2000/svg">
<path fill="#F1C21B" fill-opacity="0.5" d="M55.9,-59.5C70,-54.8,77.2,-34.8,72.6,-19C68,-3.1,51.7,8.7,41.7,22.2C31.7,35.7,27.9,51.1,18.5,57.3C9.1,63.5,-6,60.7,-21.7,56.3C-37.3,52,-53.6,46.2,-56.4,35.4C-59.2,24.7,-48.5,9,-42.9,-4.9C-37.3,-18.9,-36.9,-31.1,-30.6,-37.2C-24.3,-43.2,-12.1,-43,4.4,-48.2C20.9,-53.4,41.8,-64.1,55.9,-59.5Z" transform="translate(100 100)" />
  <path fill="#F1C21B" fill-opacity="0.7" d="M38.7,-45.2C53.6,-33.7,71.4,-24.7,71.9,-13.9C72.4,-3,55.6,9.7,44.5,22.7C33.4,35.7,28,49,18.5,53.9C8.9,58.7,-4.9,55.1,-20.8,51.7C-36.6,48.2,-54.4,45,-59.7,34.9C-65,24.8,-57.7,8,-52.5,-7.1C-47.3,-22.2,-44,-35.4,-35.6,-48C-27.2,-60.7,-13.6,-72.7,-0.8,-71.7C11.9,-70.7,23.8,-56.7,38.7,-45.2Z" transform="translate(100 100)" />
  <path fill="#F1C21B" d="M42.4,-71.4C55.8,-65.7,68,-56,67.2,-43.5C66.3,-30.9,52.3,-15.4,44.7,-4.4C37.1,6.7,35.9,13.3,33.1,19.6C30.4,26,26.1,31.9,20.3,43.6C14.6,55.4,7.3,72.9,-4.1,80C-15.4,87,-30.8,83.6,-36.4,71.7C-42,59.9,-37.9,39.7,-45,26.3C-52.1,13,-70.5,6.5,-76.7,-3.6C-82.9,-13.6,-76.8,-27.2,-66.3,-34.6C-55.7,-42.1,-40.7,-43.3,-28.9,-49.9C-17.1,-56.5,-8.6,-68.5,3,-73.7C14.5,-78.8,29,-77.1,42.4,-71.4Z" transform="translate(100 100)" />    

</svg>
