<svg xmlns="http://www.w3.org/2000/svg" viewBox="0 0 1440 320">
<path fill="#845EC2" fill-opacity="1" d="M0,96L120,106.7C240,117,480,139,720,133.3C960,128,1200,96,1320,80L1440,64L1440,320L1320,320C1200,320,960,320,720,320C480,320,240,320,120,320L0,320Z"></path>
<path fill="#845EC2" fill-opacity="0.5" d="M0,64L48,58.7C96,53,192,43,288,32C384,21,480,11,576,48C672,85,768,171,864,181.3C960,192,1056,128,1152,106.7C1248,85,1344,107,1392,117.3L1440,128L1440,320L1392,320C1344,320,1248,320,1152,320C1056,320,960,320,864,320C768,320,672,320,576,320C480,320,384,320,288,320C192,320,96,320,48,320L0,320Z"></path>
<path fill="#845EC2" fill-opacity="0.5" d="M0,64L48,64C96,64,192,64,288,64C384,64,480,64,576,58.7C672,53,768,43,864,53.3C960,64,1056,96,1152,106.7C1248,117,1344,107,1392,101.3L1440,96L1440,320L1392,320C1344,320,1248,320,1152,320C1056,320,960,320,864,320C768,320,672,320,576,320C480,320,384,320,288,320C192,320,96,320,48,320L0,320Z"></path>

</svg>